HIERARCHY
ROOT Hips
{
	OFFSET	0.00	0.00	0.00
	CHANNELS 6 Xposition Yposition Zposition Zrotation Xrotation Yrotation
	JOINT Spine
	{
		OFFSET	 0.00	0.01	 0.00
		CHANNELS 3 Zrotation Xrotation Yrotation
		JOINT Spine1
		{
			OFFSET	 0.00	 2.45913012437421	 0.00
			CHANNELS 3 Zrotation Xrotation Yrotation
            JOINT Neck
            {
                OFFSET	 0.00	 2.48462964506057	 0.00
                CHANNELS 3 Zrotation Xrotation Yrotation
                JOINT Head
                {
                    OFFSET	 0.00	 0.927524780924562	 0.00
                    CHANNELS 3 Zrotation Xrotation Yrotation
                    End Site 
                    {
                        OFFSET	 0.00	 1.14999962169752	 0.00
                    }
                }
            }
			JOINT LeftShoulder
			{
				OFFSET	 0.00	 2.48462964506057	 0.00
				CHANNELS 3 Zrotation Xrotation Yrotation
				JOINT LeftUpArm
				{
					OFFSET	 0.00	 1.24881979654096	 0.00
					CHANNELS 3 Zrotation Xrotation Yrotation
					JOINT LeftForeArm
					{
						OFFSET	 0.00	2.59758046908119	 0.00
						CHANNELS 3 Zrotation Xrotation Yrotation
						JOINT LeftHand
						{
							OFFSET	 0.00	2.45542024364365	 0.00
							CHANNELS 3 Zrotation Xrotation Yrotation
							JOINT LeftHandThumb 
							{
								OFFSET	 0.00	0.00	 0.00
								CHANNELS 3 Zrotation Xrotation Yrotation
								End Site
								{
									OFFSET	 0.00	0.00	1.00000003353624
								}
							}
							JOINT L_Wrist_End 
							{
								OFFSET	 0.00	0.99999967115358	 0.00
								CHANNELS 3 Zrotation Xrotation Yrotation
								End Site 
								{
									OFFSET	 0.00	 0.00	 0.00
								}
							}
						}
					}
				}
			}
			JOINT RightShoulder
			{
				OFFSET	 0.00	 2.48462964506057	 0.00
				CHANNELS 3 Zrotation Xrotation Yrotation
				JOINT RightUpArm
				{
					OFFSET	 0.00	 1.24881979654096	 0.00
					CHANNELS 3 Zrotation Xrotation Yrotation
					JOINT RightForeArm
					{
						OFFSET	 0.00	2.59758046908119	 0.00
						CHANNELS 3 Zrotation Xrotation Yrotation
						JOINT RightHand
						{
							OFFSET	 0.00	2.45542024364365	 0.00
							CHANNELS 3 Zrotation Xrotation Yrotation
							JOINT RightHandThumb 
							{
								OFFSET	 0.00	0.00	 0.00
								CHANNELS 3 Zrotation Xrotation Yrotation
								End Site
								{
									OFFSET	 0.00	0.00	1.00000003353624
								}
							}
							JOINT R_Wrist_End 
							{
								OFFSET	 0.00	0.99999967115358	 0.00
								CHANNELS 3 Zrotation Xrotation Yrotation
								End Site 
								{
									OFFSET	 0.00	 0.00	 0.00
								}
							}
						}
					}
				}
			}
		}
	}
	JOINT LeftUpLeg
	{
		OFFSET	 1.2719394002717	 0.00	 0.00
		CHANNELS 3 Zrotation Xrotation Yrotation
		JOINT LeftLowLeg
		{
			OFFSET	 0.00	-4.3429100912261	 0.00
			CHANNELS 3 Zrotation Xrotation Yrotation
			JOINT LeftFoot
			{
				OFFSET	 0.00	-4.48767017425826	 0.00
				CHANNELS 3 Zrotation Xrotation Yrotation
				JOINT LeftToeBase
                {
                    OFFSET	 0.00	0.00	 1.51507020887566
                    CHANNELS 3 Zrotation Xrotation Yrotation
                    End Site 
                    {
                        OFFSET	 0.00	0.00	 0.75000010571191
                    }
                }
			}
		}
	}
	JOINT RightUpLeg
	{
		OFFSET	 -1.2719393604653	 0.00	 0.00
		CHANNELS 3 Zrotation Xrotation Yrotation
		JOINT RightLowLeg
		{
			OFFSET	 0.00	-4.3429100912261	 0.00
			CHANNELS 3 Zrotation Xrotation Yrotation
			JOINT RightFoot
			{
				OFFSET	 0.00	-4.48767017425826	 0.00
				CHANNELS 3 Zrotation Xrotation Yrotation
				JOINT RightToeBase
                {
                    OFFSET	 0.00	0.00	 1.51507020887566
                    CHANNELS 3 Zrotation Xrotation Yrotation
                    End Site 
                    {
                        OFFSET	 0.00	0.00	 0.749999965609858
                    }
                }   
			}
		}
	}
}
MOTION 
Frames:	15 
Frame Time: 0.02 
  -0.22939599990844728 3.2112600708007815 9.32322998046875 140.936 73.2224 873.935 10.889 8.76928 0.0505215 -0.137821 19.7779 1.26739 20.6073 30.1782 -63.2981 77.5588 -47.4058 101.451 -112.8191 9.8302 5.8702 -45.1779 36.5524 15.6502 0.0 23.0795 0.0 23.1966 -7.59653 20.4921 0.0 0.0 0.0 0.0 0.0 0.0 112.9368 -1.0337 -1.99914 44.9359 36.367 -369.767 0.0 23.8811 0.0 -10.6367 -3.52078 -10.0676 0.0 0.0 0.0 0.0 0.0 0.0 6.42784 -29.2324 9.80343 0.0 26.0369 0.0 -2.90663 -7.0424995 15.003 0.0 -10.72753 0.0 12.6905 -24.9498 384.264 0.0 14.5889 0.0 13.9958 5.5586395 -13.9019 0.0 -20.226719 0.0 
  -0.19206199645996094 3.2247900390625 9.3160400390625 140.219 72.8388 873.978 10.9295 9.88006 0.0419957 0.247028 20.2502 1.13333 20.3369 30.1625 -63.0882 78.036 -47.4832 101.923 -113.0455 10.1815 5.67135 -45.1709 36.83 15.9102 0.0 23.4937 0.0 23.5728 -7.04631 19.9843 0.0 0.0 0.0 0.0 0.0 0.0 112.9972 -1.01075 -1.85344 44.6931 37.4087 -369.586 0.0 23.5556 0.0 -10.7146 -3.44191 -10.6688 0.0 0.0 0.0 0.0 0.0 0.0 6.68146 -30.0184 10.1291 0.0 26.4643 0.0 -2.61469 -7.0303 15.6584 0.0 -10.85227 0.0 12.8755 -25.3627 384.33 0.0 14.1349 0.0 14.1258 5.4354496 -13.896 0.0 -20.21171 0.0 
  -0.15803299903869628 3.2367401123046875 9.309959716796875 139.67 72.546 874.005 10.8574 11.2153 0.126677 0.854958 20.3866 1.04183 20.4394 30.5372 -63.1368 79.4647 -47.7365 102.834 -113.627304 10.7667 5.75155 -44.7511 37.0758 16.0419 0.0 23.8373 0.0 23.1556 -6.13112 20.5887 0.0 0.0 0.0 0.0 0.0 0.0 113.0335 -0.943234 -1.84273 44.1231 38.0338 -369.095 0.0 23.514 0.0 -10.9209 -3.3469 -10.3911 0.0 0.0 0.0 0.0 0.0 0.0 6.82702 -30.6455 10.2622 0.0 26.7482 0.0 -2.26027 -6.9463997 16.3793 0.0 -11.03927 0.0 13.0733 -25.6823 384.247 0.0 13.7691 0.0 12.9449 5.4655104 -15.1529 0.0 -20.58079 0.0 
  -0.1256149959564209 3.2476800537109374 9.304180297851563 138.804 72.1318 874.396 11.2796 12.0242 -0.053794 0.412729 21.3579 0.835859 20.3208 30.2506 -62.7284 80.6178 -47.4458 103.253 -113.4859 10.9259 5.40244 -44.5679 37.7007 16.1705 0.0 24.2534 0.0 23.2719 -5.5382 21.086 0.0 0.0 0.0 0.0 0.0 0.0 113.2771 -0.548465 -1.77789 43.7691 39.0453 -368.803 0.0 23.4661 0.0 -11.1517 -3.38277 -10.1447 0.0 0.0 0.0 0.0 0.0 0.0 6.90903 -31.3445 10.4012 0.0 26.9054 0.0 -1.90596 -6.870001 17.0506 0.0 -11.10087 0.0 13.277 -26.0767 384.66 0.0 13.4222 0.0 12.6641 4.7643003 -17.8905 0.0 -20.5129 0.0 
  -0.09527839660644531 3.256780090332031 9.299080200195313 137.31 71.5474 875.358 12.3051 12.2072 -0.636633 -1.58487 23.2067 0.440569 20.0346 29.0854 -61.827 80.7511 -46.3713 103.028 -112.3125 10.1617 4.35775 -44.7059 38.8329 16.441 0.0 24.5722 0.0 23.3121 -5.09903 21.1958 0.0 0.0 0.0 0.0 0.0 0.0 113.7115 0.511299 -1.40684 44.1288 40.15 -369.005 0.0 23.4787 0.0 -11.3124 -3.45109 -9.55394 0.0 0.0 0.0 0.0 0.0 0.0 6.92923 -32.1774 10.6426 0.0 26.955 0.0 -1.70685 -6.8150005 17.5118 0.0 -11.1161995 0.0 13.2864 -26.7482 384.429 0.0 13.1218 0.0 12.6413 4.0962 -20.3174 0.0 -20.039421 0.0 
  -0.06623970031738281 3.2649798583984375 9.29458984375 135.609 71.052 876.398 12.9085 12.8158 -0.824989 -2.95265 24.3031 0.303781 20.0774 28.12 -61.591 81.0536 -45.6826 103.009 -111.6884 9.96545 4.07886 -44.4462 39.9642 16.1767 0.0 24.9073 0.0 23.5537 -4.68466 22.0228 0.0 0.0 0.0 0.0 0.0 0.0 113.9201 1.19507 -1.15154 44.2467 40.8836 -368.704 0.0 23.717 0.0 -11.1418 -3.46192 -8.44782 0.0 0.0 0.0 0.0 0.0 0.0 6.96911 -32.9259 11.1771 0.0 27.0404 0.0 -1.62277 -6.7521 17.7311 0.0 -11.1255 0.0 13.0693 -27.4347 383.293 0.0 12.8261 0.0 12.808 3.9504995 -20.892 0.0 -19.89617 0.0 
  -0.03797539949417114 3.27260009765625 9.289600219726562 133.581 70.4903 877.573 12.637 13.8777 -0.43106 -2.76628 24.402 0.4371 20.0188 27.7584 -61.7626 82.3711 -45.766 103.612 -112.1614 10.6047 4.50896 -43.5899 40.7285 15.7672 0.0 25.5243 0.0 23.5787 -4.71961 22.0884 0.0 0.0 0.0 0.0 0.0 0.0 113.8349 1.19623 -1.16179 43.5369 41.4681 -368.181 0.0 24.1205 0.0 -10.976 -3.43803 -7.42041 0.0 0.0 0.0 0.0 0.0 0.0 7.07163 -33.7231 11.9808 0.0 27.1295 0.0 -1.69561 -6.740299 17.8052 0.0 -11.16114 0.0 12.7746 -28.357 381.553 0.0 12.6643 0.0 13.2588 4.3625 -19.206 0.0 -20.74536 0.0 
  -0.013913600444793702 3.282900085449219 9.284010009765625 131.701 69.9264 878.519 11.8223 15.0869 0.259456 -1.58007 24.2309 0.693432 19.4371 27.7172 -61.6879 84.425 -46.2721 104.416 -113.291504 11.7017 5.41959 -42.2648 41.4546 14.6427 0.0 26.2331 0.0 23.4836 -4.75284 21.6855 0.0 0.0 0.0 0.0 0.0 0.0 113.5573 0.861259 -1.15971 42.4681 42.0726 -367.643 0.0 24.5622 0.0 -11.1051 -3.62495 -6.23982 0.0 0.0 0.0 0.0 0.0 0.0 7.41481 -34.4811 13.3158 0.0 27.3007 0.0 -1.83886 -6.8232 17.4794 0.0 -11.20086 0.0 12.6788 -29.3498 380.392 0.0 12.7147 0.0 12.9533 5.3821297 -17.028 0.0 -20.24495 0.0 
  0.008101270198822022 3.29010009765625 9.276840209960938 129.843 69.2573 879.529 11.6344 15.8573 0.513616 -1.64489 24.6571 0.755347 18.8601 27.251 -61.2528 85.9989 -46.2063 105.21 -113.5463 12.0335 5.67114 -41.3709 42.5054 13.5614 0.0 26.8281 0.0 23.4137 -4.95087 21.953 0.0 0.0 0.0 0.0 0.0 0.0 113.6307 0.987361 -1.11505 41.6849 43.1158 -367.072 0.0 24.6838 0.0 -10.9778 -3.55847 -5.18532 0.0 0.0 0.0 0.0 0.0 0.0 7.71146 -35.3331 14.5241 0.0 27.4781 0.0 -1.94136 -6.9669 17.2188 0.0 -11.17141 0.0 12.7116 -30.464 380.315 0.0 12.8872 0.0 13.5294 6.12362 -15.6764 0.0 -21.75745 0.0 
  0.02578979969024658 3.2945599365234375 9.2702001953125 128.202 68.6763 880.454 11.8358 16.5442 0.524095 -2.41888 25.3554 0.714295 18.7049 26.4491 -61.0225 87.2206 -45.7237 106.209 -113.336395 12.0721 5.94937 -40.3489 43.9608 12.1059 0.0 27.2954 0.0 23.2841 -5.27572 21.8531 0.0 0.0 0.0 0.0 0.0 0.0 113.9497 1.35503 -0.938736 41.0134 44.1133 -366.863 0.0 24.9852 0.0 -11.2747 -3.71302 -4.98957 0.0 0.0 0.0 0.0 0.0 0.0 7.92846 -36.0926 15.5601 0.0 27.6984 0.0 -2.00851 -7.0967007 16.9924 0.0 -11.118401 0.0 12.7705 -31.4405 380.87 0.0 13.134 0.0 13.9238 6.52824 -15.0605 0.0 -21.33437 0.0 
  0.04111649990081787 3.298139953613281 9.264210205078125 126.902 68.1731 881.208 11.9183 17.4036 0.55474 -2.71769 25.8672 0.649244 18.5437 25.6421 -60.9213 88.5401 -45.3147 107.323 -113.3674 12.3591 6.43754 -39.0312 45.3973 10.4111 0.0 27.7552 0.0 22.9673 -5.57347 21.2523 0.0 0.0 0.0 0.0 0.0 0.0 114.17 1.49792 -0.931291 40.0911 45.3138 -366.191 0.0 25.2177 0.0 -11.4456 -3.83458 -4.85411 0.0 0.0 0.0 0.0 0.0 0.0 8.08215 -36.8238 16.2881 0.0 27.9985 0.0 -1.92214 -7.1352997 16.9832 0.0 -11.13517 0.0 12.8428 -32.2652 381.606 0.0 13.3341 0.0 14.6109 6.8514004 -14.6772 0.0 -22.1666 0.0 
  0.05561329841613769 3.3023300170898438 9.258709716796876 125.995 67.8427 881.596 11.9748 18.3943 0.478905 -2.81593 26.4826 0.46289 17.9221 24.9812 -60.3411 90.013 -44.9888 108.216 -113.3243 12.6747 6.74553 -37.6385 46.7049 8.73373 0.0 28.1973 0.0 23.1151 -5.85886 21.3267 0.0 0.0 0.0 0.0 0.0 0.0 114.197205 1.92167 -0.882981 39.1946 46.3977 -365.437 0.0 25.522 0.0 -11.7611 -3.85559 -5.02603 0.0 0.0 0.0 0.0 0.0 0.0 8.16365 -37.3993 16.4792 0.0 28.3176 0.0 -1.72176 -7.1198006 17.4968 0.0 -11.29084 0.0 13.022 -32.8452 382.65 0.0 13.558 0.0 15.2581 6.87317 -14.7049 0.0 -22.00866 0.0 
  0.06981599807739258 3.2972100830078124 9.254580078125 125.275 67.5684 881.896 12.67 19.4501 0.0206485 -3.89721 27.0013 0.119613 17.5199 24.7034 -59.483 91.7384 -44.4486 109.243 -112.8552 12.6149 6.70084 -36.3277 47.8984 6.96765 0.0 28.5478 0.0 23.0013 -6.04291 21.3511 0.0 0.0 0.0 0.0 0.0 0.0 114.471 2.8897 -1.16122 38.2779 47.5158 -364.1 0.0 25.6182 0.0 -11.9247 -3.73052 -4.61033 0.0 0.0 0.0 0.0 0.0 0.0 7.91264 -37.8355 15.7714 0.0 28.3843 0.0 -1.44725 -7.0473003 18.6663 0.0 -11.53133 0.0 13.0029 -33.3154 382.775 0.0 13.6615 0.0 15.6492 7.02954 -14.1381 0.0 -21.82626 0.0 
  0.08291130065917969 3.2879901123046875 9.252329711914063 124.367 67.084 882.357 13.1153 20.1372 -0.274501 -4.3287 27.8458 -0.0171171 16.4512 23.8164 -58.5499 92.7596 -44.1674 109.455 -112.593704 12.693 6.36483 -35.3861 49.3452 5.47033 0.0 28.7091 0.0 22.7623 -6.31094 21.1212 0.0 0.0 0.0 0.0 0.0 0.0 114.2509 3.10896 -1.06547 37.8037 49.2273 -363.132 0.0 25.4605 0.0 -12.1207 -3.77044 -4.47074 0.0 0.0 0.0 0.0 0.0 0.0 7.53522 -38.3498 14.7885 0.0 28.1974 0.0 -1.22715 -6.9872 20.0537 0.0 -11.67856 0.0 12.928 -33.8959 382.581 0.0 13.5445 0.0 15.8234 7.35493 -13.4071 0.0 -21.60292 0.0 
  0.09127909660339356 3.2785400390625 9.251099853515624 123.038 66.4943 883.096 13.3679 20.9688 -0.239881 -4.92801 27.9317 -0.0312886 16.2347 23.5856 -58.1545 93.9414 -43.8665 110.143 -112.4758 12.8929 6.55099 -33.9967 50.8058 4.07942 0.0 28.63 0.0 23.0484 -6.65793 21.9203 0.0 0.0 0.0 0.0 0.0 0.0 114.3926 3.37061 -1.1811 36.7241 50.287 -362.076 0.0 25.6154 0.0 -12.2912 -4.00158 -3.7576 0.0 0.0 0.0 0.0 0.0 0.0 7.31728 -38.8705 14.6836 0.0 27.9714 0.0 -1.20993 -7.0413 20.7008 0.0 -11.59978 0.0 12.8909 -34.6182 382.611 0.0 13.4985 0.0 15.487 7.6982 -12.973 0.0 -21.36321 0.0 
